# xmcd
#
# Track frame offsets: 
#        150
#        14962
#        30400
#        55156
#        68364
#        85717
#        95403
#        109445
#        126605
#        143880
#
# Disc length: 2139 seconds
#
# Revision: 0
# Processed by: cddbd v1.5.2PL0 Copyright (c) Steve Scherf et al.
# Submitted via: ExactAudioCopyFreeDBPlugin 1.0
#
DISCID=8908590a
DTITLE=Bobby Womack - 20 Legendary Masterpieces [CD2]
DYEAR=2003
DGENRE=Soul
TTITLE0=How I Miss You Baby
TTITLE1=Woman´s Gotta Have It
TTITLE2=Bobby Womack and Patti Labelle - Love has Finally Come At Last
TTITLE3=Nobody Wants You When You´re Down And Out
TTITLE4=Across 110th Street
TTITLE5=Fly Me To The Moon
TTITLE6=Sweet Caroline (Good Times Never Seemed So Good)
TTITLE7=Harry Hippie
TTITLE8=Check It Out
TTITLE9=If You Want My Love, Put Something Down On It
EXTD=
EXTT0=
EXTT1=
EXTT2=
EXTT3=
EXTT4=
EXTT5=
EXTT6=
EXTT7=
EXTT8=
EXTT9=
PLAYORDER=
